<svg width="113" height="20" viewBox="0 0 113 20" fill="none" xmlns="http://www.w3.org/2000/svg">
<path d="M9.13859 18.9128H6.27393V3.85459H1.24207V1.24117H14.1705V3.85459H9.13859V18.9128Z" fill="white"/>
<path d="M29.0413 17.5189L26.9488 19.4106L20.2729 12.0931H19.0275V18.9128H16.1627V1.24117H26.0271L28.7423 3.92925V9.40498L26.0271 12.0931H24.3831L23.8102 11.8442L23.7603 11.9188L24.3332 12.367L29.0413 17.5189ZM19.0274 3.85459V9.47965H24.6819L25.8775 8.30988V5.02435L24.6819 3.85459H19.0274Z" fill="white"/>
<path d="M31.7812 1.24117H43.0654V3.85459H34.6458V8.38443H42.0191V10.9979H34.6458V16.2994H43.0654V18.9128H31.7812V1.24117Z" fill="white"/>
<path d="M61.872 1.24117H64.7367V16.2994H73.0317V18.9128H61.872V1.24117Z" fill="white"/>
<path d="M72.9569 18.9128V16.2992H75.4728V3.85459H72.9569V1.24117H80.8535V3.85459H78.3376V16.2992H80.8535V18.9127L72.9569 18.9128Z" fill="white"/>
<path d="M92.8596 12.5908L93.4575 14.109H93.5573L93.333 12.5658V1.24117H96.1976V18.9128H93.4327L86.9311 7.56311L86.3332 6.0449H86.2337L86.4577 7.58811V18.9129H83.5931V1.24117H86.3582L92.8596 12.5908Z" fill="white"/>
<path d="M112.04 17.9669L109.649 19.4104L104.592 11.0475L102.549 13.3623V18.9127H99.6848V1.24117H102.549V9.13121L109.948 0.743505L112.065 2.58527L106.535 8.85743L112.04 17.9669Z" fill="white"/>
<path d="M55.4953 1.24117H48.4458L45.3071 4.10347V16.0505L48.4458 18.9128H55.4953L58.6338 16.0505V4.10347L55.4953 1.24117ZM54.3494 16.2992H49.5916L48.1717 15.005V5.17369L49.5916 3.85459H54.3494L55.7693 5.17369V5.78746H52.7804V6.50044H55.7693V7.78361H52.7804V8.4966H55.7693V9.77977H52.7804V10.4928H55.7693V11.7749H52.7804V12.4879H55.7693V13.7711H52.7804V14.4841H55.7693V14.9804L54.3494 16.2992Z" fill="white"/>
</svg>
