<svg width="24" height="18" viewBox="0 0 24 18" fill="none" xmlns="http://www.w3.org/2000/svg">
<path d="M23.0503 3.41226C22.7816 2.40927 22.0025 1.63017 21.0085 1.36151C19.2085 0.87793 11.9905 0.87793 11.9905 0.87793C11.9905 0.87793 4.77264 0.87793 2.97264 1.36151C1.97861 1.63017 1.1995 2.41823 0.930848 3.41226C0.447266 5.22121 0.447266 9.00032 0.447266 9.00032C0.447266 9.00032 0.447266 12.7794 0.930848 14.5884C1.1995 15.5914 1.97861 16.3705 2.97264 16.6391C4.77264 17.1227 11.9905 17.1227 11.9905 17.1227C11.9905 17.1227 19.2085 17.1227 21.0085 16.6391C22.0025 16.3705 22.7816 15.5824 23.0503 14.5884C23.5338 12.7794 23.5338 9.00032 23.5338 9.00032C23.5338 9.00032 23.5338 5.22121 23.0503 3.41226ZM9.63532 12.4302V5.57047L15.6622 9.00032L9.63532 12.4302Z" fill="white"/>
</svg>
