<svg width="22" height="22" viewBox="0 0 22 22" fill="none" xmlns="http://www.w3.org/2000/svg">
<path d="M11.0001 2.70744C13.7046 2.70744 14.018 2.71639 15.0837 2.77012C16.0688 2.8149 16.6061 2.97609 16.9643 3.11938C17.4389 3.29848 17.7702 3.52236 18.1285 3.87162C18.4867 4.22982 18.7016 4.56117 18.8807 5.0358C19.015 5.394 19.1852 5.93132 19.2299 6.91639C19.2747 7.98206 19.2926 8.30445 19.2926 11C19.2926 13.6955 19.2837 14.0179 19.2299 15.0836C19.1852 16.0686 19.024 16.6059 18.8807 16.9642C18.7016 17.4388 18.4777 17.7701 18.1285 18.1283C17.7792 18.4865 17.4389 18.7015 16.9643 18.8806C16.6061 19.0149 16.0688 19.185 15.0837 19.2298C14.018 19.2746 13.6956 19.2925 11.0001 19.2925C8.30457 19.2925 7.98219 19.2836 6.91651 19.2298C5.93144 19.185 5.39413 19.0239 5.03592 18.8806C4.56129 18.7015 4.22995 18.4776 3.87174 18.1283C3.51353 17.7701 3.2986 17.4388 3.1195 16.9642C2.98517 16.6059 2.81502 16.0686 2.77025 15.0836C2.72547 14.0179 2.70756 13.6955 2.70756 11C2.70756 8.30445 2.71651 7.98206 2.77025 6.91639C2.81502 5.93132 2.97622 5.394 3.1195 5.0358C3.2986 4.56117 3.52248 4.22982 3.87174 3.87162C4.22995 3.51341 4.56129 3.29848 5.03592 3.11938C5.39413 2.98505 5.93144 2.8149 6.91651 2.77012C7.98219 2.72535 8.30457 2.70744 11.0001 2.70744ZM11.0001 0.889526C8.25084 0.889526 7.91054 0.898481 6.82696 0.952213C5.75234 0.996989 5.01801 1.17609 4.37323 1.42684C3.71054 1.68654 3.14637 2.02684 2.58219 2.59102C2.01801 3.1552 1.67771 3.71938 1.41801 4.38206C1.16726 5.02684 0.997111 5.76117 0.952335 6.83579C0.898603 7.91042 0.889648 8.25967 0.889648 11.0089C0.889648 13.7582 0.898603 14.0985 0.952335 15.1821C0.997111 16.2567 1.17622 16.991 1.41801 17.6358C1.67771 18.2985 2.01801 18.8627 2.58219 19.4268C3.14637 19.991 3.71054 20.3313 4.37323 20.591C5.01801 20.8418 5.75234 21.0119 6.82696 21.0656C7.90159 21.1104 8.25084 21.1283 11.0001 21.1283C13.7494 21.1283 14.0896 21.1194 15.1732 21.0656C16.2479 21.0209 16.9822 20.8418 17.627 20.591C18.2896 20.3313 18.8538 19.991 19.418 19.4268C19.9822 18.8627 20.3225 18.2985 20.5822 17.6358C20.8329 16.991 21.0031 16.2567 21.0479 15.1821C21.0926 14.1074 21.1105 13.7582 21.1105 11.0089C21.1105 8.25967 21.1016 7.91938 21.0479 6.83579C21.0031 5.76117 20.824 5.02684 20.5822 4.38206C20.3225 3.71938 19.9822 3.1552 19.418 2.59102C18.8538 2.02684 18.2896 1.68654 17.627 1.42684C16.9822 1.17609 16.2479 1.00594 15.1732 0.952213C14.0986 0.907437 13.7494 0.889526 11.0001 0.889526Z" fill="white"/>
<path d="M10.9997 5.80554C8.13402 5.80554 5.80566 8.1339 5.80566 10.9996C5.80566 13.8652 8.13402 16.1936 10.9997 16.1936C13.8654 16.1936 16.1937 13.8652 16.1937 10.9996C16.1937 8.1339 13.8654 5.80554 10.9997 5.80554ZM10.9997 14.3667C9.13701 14.3667 7.63253 12.8533 7.63253 10.9996C7.63253 9.14584 9.14596 7.63241 10.9997 7.63241C12.8534 7.63241 14.3669 9.14584 14.3669 10.9996C14.3669 12.8533 12.8534 14.3667 10.9997 14.3667Z" fill="white"/>
<path d="M17.6087 5.59962C17.6087 6.27127 17.0624 6.81754 16.3908 6.81754C15.7191 6.81754 15.1729 6.27127 15.1729 5.59962C15.1729 4.92798 15.7191 4.38171 16.3908 4.38171C17.0624 4.38171 17.6087 4.92798 17.6087 5.59962Z" fill="white"/>
</svg>
