<svg width="134" height="52" viewBox="0 0 134 52" fill="none" xmlns="http://www.w3.org/2000/svg">
<path d="M73.8796 28.4433C73.8796 33.9394 69.2355 38.4049 63.5756 38.4049C57.9158 38.4049 53.272 33.9394 53.272 28.4433V19.9932C53.272 19.9932 58.2061 21.1611 58.2061 26.1075V28.4433C58.2061 31.4661 60.6006 33.8707 63.5756 33.8707C66.5507 33.8707 68.9451 31.4661 68.9451 28.4433V23.5656V23.6343C69.1628 19.5123 72.8636 18.207 73.8069 17.7261H73.8796V28.4433ZM47.3944 18.5505C48.7731 18.5505 50.079 18.7566 51.24 19.2375V24.4587C50.2242 23.6343 48.8456 23.1534 47.3944 23.1534C44.1291 23.1534 41.5168 25.5579 41.5168 28.5807V38.4049H36.5827V20.4053C36.5827 20.4053 38.6142 20.4741 39.9203 21.3672C41.8069 19.581 44.4919 18.5505 47.3944 18.5505ZM23.7391 33.9394C20.4738 33.9394 17.7888 31.4661 17.7888 28.4433C17.7888 25.4205 20.4738 22.9473 23.7391 22.9473C27.0044 22.9473 29.6893 25.4205 29.6893 28.4433C29.6893 31.4661 27.0044 33.9394 23.7391 33.9394ZM23.7391 18.5505C17.789 18.5505 13 23.016 13 28.4433C13 33.9394 17.789 38.3362 23.7391 38.3362C26.2062 38.3362 28.4556 37.5805 30.2697 36.2752C31.3581 37.9927 34.4781 38.3362 34.4781 38.3362V28.4433C34.4781 23.016 29.6892 18.5505 23.7391 18.5505ZM109.58 33.9394C106.315 33.9394 103.63 31.4661 103.63 28.4433C103.63 25.4205 106.315 22.9473 109.58 22.9473C112.845 22.9473 115.53 25.4205 115.53 28.4433C115.53 31.4661 112.845 33.9394 109.58 33.9394ZM109.58 18.5505C103.63 18.5505 98.8409 23.016 98.8409 28.4433C98.8409 33.9394 103.63 38.3362 109.58 38.3362C112.047 38.3362 114.296 37.5805 116.111 36.2752C117.199 37.9927 120.319 38.3362 120.319 38.3362V28.4433C120.319 23.016 115.53 18.5505 109.58 18.5505ZM86.7955 33.9394C83.5302 33.9394 80.8456 31.4661 80.8456 28.4433C80.8456 25.4205 83.5302 22.9473 86.7955 22.9473C90.0608 22.9473 92.7458 25.4205 92.7458 28.4433C92.8183 31.4661 90.1334 33.9394 86.7955 33.9394ZM86.7955 18.5505C84.6186 18.5505 82.5871 19.1688 80.8456 20.1993V18.6191C80.6279 14.4971 77.0724 13.1918 76.1291 12.7109H76.0564V38.4049C76.0564 38.4049 79.2493 38.0614 80.4828 36.4125C82.2969 37.5805 84.4735 38.3362 86.7955 38.3362C92.7456 38.3362 97.5349 33.8706 97.5349 28.4433C97.6075 23.016 92.7456 18.5505 86.7955 18.5505Z" fill="#022168"/>
</svg>
