<svg width="134" height="52" viewBox="0 0 134 52" fill="none" xmlns="http://www.w3.org/2000/svg">
<path d="M48.5861 33.7018H52.4863V48.1262H48.5861V33.7018ZM83.4444 37.8561C83.3225 37.7407 82.1037 37.0483 80.1536 37.0483C77.7159 37.0483 75.8877 38.6638 75.8877 40.8563C75.8877 43.0488 77.594 44.6644 80.1536 44.6644C81.9818 44.6644 83.2006 43.972 83.4444 43.8566V47.7801C82.9568 47.8954 81.6161 48.2416 79.9098 48.2416C75.522 48.2416 71.7437 45.4721 71.7437 40.7409C71.7437 36.4713 75.1564 33.2402 79.9098 33.2402C81.738 33.2402 83.0787 33.7018 83.4444 33.7018V37.8561ZM43.2233 37.8561C43.1014 37.7407 41.8826 37.0483 39.9325 37.0483C37.4949 37.0483 35.6666 38.6638 35.6666 40.8563C35.6666 43.0488 37.373 44.6644 39.9325 44.6644C41.7607 44.6644 42.9795 43.972 43.2233 43.8566V47.7801C42.7358 47.8954 41.3951 48.2416 39.6887 48.2416C35.4229 48.2416 31.5226 45.4721 31.5226 40.7409C31.5226 36.4713 34.9353 33.2402 39.6887 33.2402C41.517 33.2402 42.8577 33.7018 43.2233 33.7018V37.8561ZM103.555 40.9717C103.555 45.126 100.142 48.4724 95.5107 48.4724C90.8792 48.4724 87.4665 45.126 87.4665 40.9717C87.4665 36.8175 90.8792 33.471 95.5107 33.471C100.264 33.471 103.555 36.8175 103.555 40.9717ZM95.5107 37.1637C93.1949 37.1637 91.4886 38.8946 91.4886 40.9717C91.4886 43.0488 93.1949 44.7798 95.5107 44.7798C97.8264 44.7798 99.5328 43.0488 99.5328 40.9717C99.5328 38.8946 97.8264 37.1637 95.5107 37.1637ZM66.9903 37.0483C66.9903 37.0483 65.284 36.5867 63.9433 36.5867C62.3588 36.5867 61.5056 37.0483 61.5056 37.7407C61.5056 38.6638 62.6026 38.8946 63.212 39.1254L64.3089 39.4716C66.7465 40.2794 67.9654 41.8949 67.9654 43.6258C67.9654 47.2031 64.5527 48.4724 61.6275 48.4724C59.5555 48.4724 57.6054 48.1262 57.4835 48.1262V44.7798C57.8492 44.8952 59.4336 45.3567 61.14 45.3567C63.0901 45.3567 63.9433 44.7798 63.9433 43.972C63.9433 43.2796 63.212 42.8181 62.2369 42.5873C61.9931 42.4719 61.6275 42.3565 61.3837 42.3565C59.1899 41.6641 57.4835 40.5102 57.4835 38.0868C57.4835 35.4328 59.6774 33.5864 63.212 33.5864C65.0402 33.5864 66.8684 34.048 66.9903 34.048V37.0483Z" fill="#022168"/>
<path d="M27.5005 18.2388C27.5038 17.9955 27.4555 17.754 27.3587 17.5286C27.2619 17.3032 27.1183 17.0985 26.9366 16.9264C26.7549 16.7543 26.5386 16.6184 26.3005 16.5267C26.0624 16.4351 25.8074 16.3894 25.5504 16.3925C25.2934 16.3894 25.0383 16.4351 24.8002 16.5267C24.5622 16.6184 24.3459 16.7543 24.1641 16.9264C23.9824 17.0985 23.8389 17.3032 23.742 17.5286C23.6452 17.754 23.597 17.9955 23.6003 18.2388V22.0469C23.597 22.2902 23.6452 22.5317 23.742 22.7571C23.8389 22.9825 23.9824 23.1873 24.1641 23.3593C24.3459 23.5314 24.5622 23.6673 24.8002 23.759C25.0383 23.8507 25.2934 23.8963 25.5504 23.8932C25.8074 23.8963 26.0624 23.8507 26.3005 23.759C26.5386 23.6673 26.7549 23.5314 26.9366 23.3593C27.1183 23.1873 27.2619 22.9825 27.3587 22.7571C27.4555 22.5317 27.5038 22.2902 27.5005 22.0469V18.2388Z" fill="#022168"/>
<path d="M37.9824 13.2769C37.9856 13.0335 37.9374 12.7921 37.8406 12.5667C37.7437 12.3412 37.6002 12.1365 37.4185 11.9644C37.2367 11.7923 37.0205 11.6565 36.7824 11.5648C36.5443 11.4731 36.2892 11.4274 36.0322 11.4305C34.9353 11.4305 34.204 12.2383 34.204 13.2769V22.0469C34.2007 22.2902 34.2489 22.5317 34.3458 22.7571C34.4426 22.9825 34.5862 23.1873 34.7679 23.3594C34.9496 23.5314 35.1659 23.6673 35.404 23.759C35.6421 23.8507 35.8971 23.8963 36.1541 23.8932C36.4111 23.8963 36.6662 23.8507 36.9043 23.759C37.1423 23.6673 37.3586 23.5314 37.5404 23.3594C37.7221 23.1873 37.8656 22.9825 37.9625 22.7571C38.0593 22.5317 38.1075 22.2902 38.1042 22.0469V13.2769H37.9824ZM48.5861 6.46854C48.5894 6.22522 48.5412 5.98374 48.4443 5.75833C48.3475 5.53293 48.204 5.32815 48.0222 5.15609C47.8405 4.98402 47.6242 4.84814 47.3861 4.75645C47.148 4.66476 46.893 4.61912 46.636 4.62222C46.379 4.61912 46.1239 4.66476 45.8858 4.75645C45.6478 4.84814 45.4315 4.98402 45.2497 5.15609C45.068 5.32815 44.9245 5.53293 44.8276 5.75833C44.7308 5.98374 44.6826 6.22522 44.6859 6.46854V25.6242C44.6826 25.8675 44.7308 26.109 44.8276 26.3344C44.9245 26.5598 45.068 26.7645 45.2497 26.9366C45.4315 27.1087 45.6478 27.2446 45.8858 27.3363C46.1239 27.4279 46.379 27.4736 46.636 27.4705C46.893 27.4736 47.148 27.4279 47.3861 27.3363C47.6242 27.2446 47.8405 27.1087 48.0222 26.9366C48.204 26.7645 48.3475 26.5598 48.4443 26.3344C48.5412 26.109 48.5894 25.8675 48.5861 25.6242V6.46854ZM59.0679 13.2769C59.0712 13.0335 59.023 12.7921 58.9262 12.5667C58.8293 12.3412 58.6858 12.1365 58.5041 11.9644C58.3223 11.7923 58.106 11.6565 57.868 11.5648C57.6299 11.4731 57.3748 11.4274 57.1178 11.4305C56.8608 11.4274 56.6058 11.4731 56.3677 11.5648C56.1296 11.6565 55.9133 11.7923 55.7316 11.9644C55.5499 12.1365 55.4063 12.3412 55.3095 12.5667C55.2127 12.7921 55.1644 13.0335 55.1677 13.2769V22.0469C55.1644 22.2902 55.2127 22.5317 55.3095 22.7571C55.4063 22.9825 55.5499 23.1873 55.7316 23.3594C55.9133 23.5314 56.1296 23.6673 56.3677 23.759C56.6058 23.8507 56.8608 23.8963 57.1178 23.8932C57.3748 23.8963 57.6299 23.8507 57.868 23.759C58.106 23.6673 58.3223 23.5314 58.5041 23.3594C58.6858 23.1873 58.8293 22.9825 58.9262 22.7571C59.023 22.5317 59.0712 22.2902 59.0679 22.0469V13.2769Z" fill="#022168"/>
<path d="M69.5498 18.2388C69.5531 17.9955 69.5049 17.754 69.408 17.5286C69.3112 17.3032 69.1677 17.0985 68.9859 16.9264C68.8042 16.7543 68.5879 16.6184 68.3498 16.5267C68.1118 16.4351 67.8567 16.3894 67.5997 16.3925C67.3427 16.3894 67.0877 16.4351 66.8496 16.5267C66.6115 16.6184 66.3952 16.7543 66.2135 16.9264C66.0317 17.0985 65.8882 17.3032 65.7914 17.5286C65.6945 17.754 65.6463 17.9955 65.6496 18.2388V22.0469C65.6463 22.2902 65.6945 22.5317 65.7914 22.7571C65.8882 22.9825 66.0317 23.1873 66.2135 23.3593C66.3952 23.5314 66.6115 23.6673 66.8496 23.759C67.0877 23.8507 67.3427 23.8963 67.5997 23.8932C67.8567 23.8963 68.1118 23.8507 68.3498 23.759C68.5879 23.6673 68.8042 23.5314 68.9859 23.3593C69.1677 23.1873 69.3112 22.9825 69.408 22.7571C69.5049 22.5317 69.5531 22.2902 69.5498 22.0469V18.2388Z" fill="#022168"/>
<path d="M80.0316 13.2769C80.0316 12.7872 79.8261 12.3176 79.4604 11.9713C79.0947 11.6251 78.5987 11.4306 78.0815 11.4306C77.5642 11.4306 77.0682 11.6251 76.7025 11.9713C76.3368 12.3176 76.1313 12.7872 76.1313 13.2769V22.0469C76.1313 22.5366 76.3368 23.0062 76.7025 23.3525C77.0682 23.6987 77.5642 23.8933 78.0815 23.8933C78.5987 23.8933 79.0947 23.6987 79.4604 23.3525C79.8261 23.0062 80.0316 22.5366 80.0316 22.0469V13.2769ZM90.5134 6.46857C90.5134 5.97889 90.308 5.50928 89.9422 5.16302C89.5765 4.81677 89.0805 4.62225 88.5633 4.62225C88.0461 4.62225 87.5501 4.81677 87.1844 5.16302C86.8186 5.50928 86.6132 5.97889 86.6132 6.46857V25.6242C86.6132 26.1139 86.8186 26.5835 87.1844 26.9297C87.5501 27.276 88.0461 27.4705 88.5633 27.4705C89.0805 27.4705 89.5765 27.276 89.9422 26.9297C90.308 26.5835 90.5134 26.1139 90.5134 25.6242V6.46857ZM100.995 13.2769C100.995 13.0344 100.945 12.7943 100.847 12.5703C100.749 12.3463 100.605 12.1428 100.424 11.9713C100.243 11.7999 100.028 11.6639 99.7914 11.5711C99.5548 11.4783 99.3012 11.4306 99.0452 11.4306C98.7891 11.4306 98.5355 11.4783 98.2989 11.5711C98.0623 11.6639 97.8473 11.7999 97.6662 11.9713C97.4851 12.1428 97.3415 12.3463 97.2435 12.5703C97.1455 12.7943 97.095 13.0344 97.095 13.2769V22.0469C97.095 22.2894 97.1455 22.5295 97.2435 22.7535C97.3415 22.9775 97.4851 23.181 97.6662 23.3525C97.8473 23.5239 98.0623 23.6599 98.2989 23.7527C98.5355 23.8455 98.7891 23.8933 99.0452 23.8933C99.3012 23.8933 99.5548 23.8455 99.7914 23.7527C100.028 23.6599 100.243 23.5239 100.424 23.3525C100.605 23.181 100.749 22.9775 100.847 22.7535C100.945 22.5295 100.995 22.2894 100.995 22.0469V13.2769ZM111.477 18.2389C111.477 17.7492 111.272 17.2796 110.906 16.9333C110.54 16.5871 110.044 16.3926 109.527 16.3926C109.01 16.3926 108.514 16.5871 108.148 16.9333C107.782 17.2796 107.577 17.7492 107.577 18.2389V22.0469C107.577 22.5366 107.782 23.0062 108.148 23.3525C108.514 23.6987 109.01 23.8933 109.527 23.8933C110.044 23.8933 110.54 23.6987 110.906 23.3525C111.272 23.0062 111.477 22.5366 111.477 22.0469V18.2389Z" fill="#022168"/>
</svg>
