<svg width="143" height="52" viewBox="0 0 143 52" fill="none" xmlns="http://www.w3.org/2000/svg">
<g clip-path="url(#clip0_6915_1056)">
<path d="M82.0619 34.5024C82.0619 38.9142 79.891 41.1237 75.5416 41.1237C71.1921 41.1237 69.2137 38.9664 69.2137 34.6592V26.1792H72.7241V34.704C72.7241 37.0778 73.7094 38.2722 75.6724 38.2722C77.6355 38.2722 78.5669 37.1226 78.5669 34.8309V26.1866H82.0696V34.5174L82.0619 34.5024Z" fill="#022168"/>
<path d="M95.9647 40.3473C94.8331 40.8698 93.3473 41.1236 91.5229 41.1236C89.1364 41.1236 87.2658 40.4592 85.8955 39.138C84.533 37.8167 83.8478 36.0475 83.8478 33.8379C83.8478 31.4865 84.6177 29.583 86.1496 28.1199C87.6815 26.6568 89.6753 25.9252 92.1233 25.9252C93.6398 25.9252 94.9177 26.1044 95.957 26.4701V29.6576C94.9177 29.0679 93.7322 28.7768 92.4004 28.7768C90.9378 28.7768 89.76 29.2097 88.867 30.0756C87.974 30.9416 87.5198 32.121 87.5198 33.599C87.5198 35.0771 87.9432 36.152 88.79 36.9955C89.6368 37.8391 90.7761 38.2646 92.2003 38.2646C93.6244 38.2646 94.8176 37.951 95.9493 37.324V40.3473H95.9647Z" fill="#022168"/>
<path d="M126.395 34.5024C126.395 38.9142 124.224 41.1237 119.875 41.1237C115.526 41.1237 113.547 38.9664 113.547 34.6592V26.1792H117.057V34.704C117.057 37.0778 118.043 38.2722 120.006 38.2722C121.969 38.2722 122.9 37.1226 122.9 34.8309V26.1866H126.403V34.5174L126.395 34.5024Z" fill="#022168"/>
<path d="M128.374 40.3026V37.0256C129.005 37.5257 129.682 37.8989 130.421 38.1453C131.16 38.3916 131.899 38.5185 132.654 38.5185C133.093 38.5185 133.478 38.4812 133.809 38.4065C134.14 38.3319 134.409 38.2274 134.632 38.093C134.856 37.9587 135.017 37.8019 135.125 37.6227C135.233 37.4436 135.287 37.242 135.287 37.033C135.287 36.7494 135.202 36.4881 135.025 36.2641C134.848 36.0402 134.617 35.8312 134.317 35.6371C134.016 35.443 133.662 35.2639 133.247 35.0847C132.839 34.9055 132.392 34.7264 131.915 34.5398C130.699 34.062 129.798 33.4798 129.197 32.7855C128.605 32.0988 128.304 31.2627 128.304 30.2848C128.304 29.5234 128.466 28.859 128.789 28.3141C129.113 27.7617 129.559 27.3138 130.113 26.9555C130.675 26.5972 131.322 26.3359 132.061 26.1717C132.8 26.0075 133.578 25.9179 134.401 25.9179C135.225 25.9179 135.926 25.9627 136.549 26.0597C137.173 26.1493 137.75 26.2911 138.281 26.4852V29.5458C138.019 29.3741 137.735 29.2248 137.434 29.0979C137.126 28.971 136.811 28.859 136.488 28.7769C136.164 28.6948 135.841 28.6276 135.518 28.5903C135.194 28.553 134.894 28.5306 134.601 28.5306C134.201 28.5306 133.839 28.5679 133.516 28.6351C133.193 28.7097 132.916 28.8068 132.692 28.9411C132.469 29.068 132.292 29.2248 132.169 29.404C132.046 29.5831 131.984 29.7847 131.984 30.0161C131.984 30.2624 132.053 30.4789 132.192 30.6804C132.331 30.8745 132.523 31.0612 132.777 31.2328C133.031 31.4045 133.339 31.5762 133.701 31.7479C134.063 31.9121 134.471 32.0913 134.925 32.263C135.548 32.5093 136.103 32.7706 136.595 33.0468C137.088 33.323 137.511 33.6365 137.865 33.9874C138.22 34.3382 138.489 34.7339 138.681 35.1817C138.866 35.6296 138.966 36.1522 138.966 36.7419C138.966 37.563 138.805 38.2498 138.474 38.8096C138.143 39.3695 137.696 39.8174 137.134 40.1608C136.572 40.5042 135.918 40.7505 135.171 40.9073C134.424 41.064 133.632 41.1312 132.8 41.1312C131.969 41.1312 131.137 41.064 130.368 40.9297C129.598 40.7953 128.928 40.5863 128.366 40.3175L128.374 40.3026Z" fill="#022168"/>
<path d="M101.915 40.8699H98.4127V26.1792H101.915V40.8699Z" fill="#022168"/>
<path d="M103.293 34.4875L108.713 40.8699H113.131L106.357 33.1812L111.777 26.1792H107.604L103.316 32.3003L103.293 34.4875Z" fill="#022168"/>
<path d="M64.1561 35.1519C64.5795 34.9578 64.9721 34.7189 65.3185 34.4353C66.4424 33.5245 67.0044 32.3302 67.0044 30.8521C67.0044 27.7318 65.049 26.1717 61.1307 26.1717H53.9022V40.8625H57.4048V28.7097H60.5302C62.3932 28.7097 63.3247 29.4637 63.3247 30.9716C63.3247 32.4795 62.3932 33.2857 60.5302 33.2857V33.3006H58.5518L64.7719 40.855H69.1906L64.1561 35.137V35.1519Z" fill="#022168"/>
<path d="M50.1455 13.2277L49.1909 12.0557L44.0178 14.1981L41.8392 12.7648L38.3443 13.4964L34.5106 15.1536L33.5176 17.296L35.3574 19.4011L36.7662 19.8042L40.4844 16.0568L37.1973 21.2598L34.6646 20.4685L34.0795 19.6474L29.8302 24.7534L16.6048 28.1275C16.1429 28.1275 15.4655 28.1424 15.4655 28.1424C3.21011 23.0514 10.2539 16.2285 10.3232 16.1539C10.2385 16.1987 0.269433 21.0807 11.5395 30.0758L9.43019 32.3973L7.93675 38.9589L4.14928 41.8777L0 50.619H3.94143L4.58807 49.141L3.06385 48.7752L5.55034 44.5799C6.84362 43.9081 11.4779 42.1016 12.3863 41.4895L18.5448 33.9874L25.4346 36.0924L26.4045 31.942L26.7432 32.6362L27.2744 38.5558L24.3645 51.2087H28.483V49.9173L26.9434 49.2903L31.9549 38.3841C31.9549 38.3841 39.576 33.6813 39.5683 33.6365C39.5452 33.5171 43.2634 22.4169 43.2634 22.4169L47.8669 22.0362L49.214 20.2371L43.7561 20.2521L50.0839 15.7284L50.1455 13.2575V13.2277Z" fill="#022168"/>
<path d="M33.2097 39.056L38.2211 35.973L32.8017 48.2228L34.349 48.7976V50.0218L30.7232 50.0293L33.2097 39.056Z" fill="#022168"/>
<path d="M20.5694 41.818L14.842 44.6397L12.7327 48.2526L14.3339 48.6856L13.6872 50.0143H10.1538L12.902 42.9302C13.1638 42.7735 16.0737 40.2578 16.0737 40.2578L16.32 38.6603L18.9989 35.3982L22.9789 36.6224L20.5694 41.818Z" fill="#022168"/>
<path d="M42.2703 27.3959L30.7771 23.2081L31.9241 21.8197L42.7553 25.5894L42.2703 27.3959Z" fill="#022168"/>
<path d="M142.8 27.0899C142.8 27.9409 142.092 28.6052 141.176 28.6052C140.26 28.6052 139.544 27.9409 139.544 27.0899C139.544 26.2389 140.267 25.5894 141.176 25.5894C142.084 25.5894 142.8 26.2538 142.8 27.0899ZM139.952 27.0899C139.952 27.7542 140.475 28.2843 141.191 28.2843C141.907 28.2843 142.4 27.7542 142.4 27.0973C142.4 26.4404 141.884 25.888 141.183 25.888C140.483 25.888 139.959 26.4255 139.959 27.0824L139.952 27.0899ZM140.929 27.8737H140.56V26.3733C140.706 26.3434 140.906 26.3285 141.168 26.3285C141.468 26.3285 141.607 26.3733 141.722 26.4404C141.807 26.5076 141.876 26.6271 141.876 26.7689C141.876 26.9331 141.738 27.06 141.545 27.1197V27.1347C141.699 27.1869 141.784 27.2989 141.838 27.5004C141.884 27.7319 141.915 27.8214 141.953 27.8737H141.561C141.514 27.8214 141.484 27.6796 141.437 27.5079C141.407 27.3437 141.314 27.269 141.106 27.269H140.929V27.8737ZM140.937 27.0227H141.114C141.314 27.0227 141.484 26.9555 141.484 26.8062C141.484 26.6718 141.376 26.5748 141.145 26.5748C141.045 26.5748 140.983 26.5823 140.945 26.5897V27.0227H140.937Z" fill="#022168"/>
<path d="M53.9638 13.1008V20.2297H57.4818V10.6448L53.9638 13.1008Z" fill="#022168"/>
<path d="M61.4925 7.84554V20.2297H65.0106V5.38961L61.4925 7.84554Z" fill="#022168"/>
<path d="M69.2137 2.45593V20.2297H72.7318V0L69.2137 2.45593Z" fill="#022168"/>
<path d="M57.9668 51.7014C57.5511 51.8955 57.0045 51.9925 56.3348 51.9925C55.4572 51.9925 54.7721 51.7462 54.264 51.2461C53.7559 50.7459 53.5096 50.0815 53.5096 49.2455C53.5096 48.3572 53.7944 47.6405 54.3564 47.0881C54.9184 46.5357 55.6497 46.2595 56.558 46.2595C57.1123 46.2595 57.5896 46.3267 57.9668 46.4611V47.6629C57.5819 47.439 57.1508 47.327 56.6581 47.327C56.1193 47.327 55.6882 47.4912 55.3571 47.8197C55.0261 48.1481 54.8645 48.5886 54.8645 49.1484C54.8645 49.7083 55.0184 50.1114 55.334 50.4324C55.6497 50.7534 56.0654 50.9101 56.5888 50.9101C57.1123 50.9101 57.5511 50.7907 57.9668 50.5518V51.7014Z" fill="#022168"/>
<path d="M62.1777 52C61.3617 52 60.6919 51.7387 60.1762 51.2237C59.6604 50.7086 59.4064 50.0368 59.4064 49.2007C59.4064 48.3273 59.6681 47.6181 60.1916 47.0732C60.715 46.5283 61.4079 46.2595 62.27 46.2595C63.086 46.2595 63.7481 46.5208 64.2485 47.0359C64.7488 47.551 65.0029 48.2377 65.0029 49.0813C65.0029 49.9248 64.7411 50.6563 64.2177 51.1863C63.6942 51.7163 63.0168 51.9851 62.1777 51.9851V52ZM62.2316 47.3419C61.7774 47.3419 61.4233 47.5062 61.1538 47.8346C60.8844 48.1631 60.7535 48.596 60.7535 49.141C60.7535 49.6859 60.8844 50.1263 61.1538 50.4399C61.4233 50.7534 61.7697 50.9176 62.2008 50.9176C62.6319 50.9176 62.9937 50.7608 63.2554 50.4548C63.5171 50.1487 63.648 49.7158 63.648 49.1634C63.648 48.611 63.5248 48.1407 63.2708 47.8197C63.0168 47.4987 62.6703 47.3419 62.2316 47.3419Z" fill="#022168"/>
<path d="M72.0928 51.903V48.5886C72.0928 48.2303 72.1082 47.8346 72.139 47.4017H72.1082C72.039 47.745 71.9851 47.9839 71.9312 48.1332L70.5917 51.903H69.5371L68.1745 48.1705C68.136 48.0735 68.0744 47.8122 67.9974 47.3942H67.959C67.9974 47.9391 68.0128 48.4169 68.0128 48.8349V51.903H66.8504V46.3641H68.7365L69.9066 49.6486C69.9989 49.9098 70.0682 50.1786 70.1067 50.4399H70.1298C70.1991 50.1338 70.2761 49.8651 70.3608 49.6411L71.5309 46.3641H73.3707V51.903H72.0928Z" fill="#022168"/>
<path d="M80.7994 51.903V48.5886C80.7994 48.2303 80.8148 47.8346 80.8456 47.4017H80.8148C80.7455 47.745 80.6916 47.9839 80.6377 48.1332L79.2983 51.903H78.2436L76.8811 48.1705C76.8426 48.0735 76.781 47.8122 76.704 47.3942H76.6655C76.704 47.9391 76.7194 48.4169 76.7194 48.8349V51.903H75.557V46.3641H77.443L78.6131 49.6486C78.7055 49.9098 78.7748 50.1786 78.8133 50.4399H78.8364C78.9057 50.1338 78.9827 49.8651 79.0673 49.6411L80.2374 46.3641H82.0773V51.903H80.7994Z" fill="#022168"/>
<path d="M84.0095 51.6865V50.4473C84.2405 50.6339 84.4945 50.7758 84.7639 50.8728C85.0334 50.9699 85.3105 51.0146 85.5876 51.0146C85.7493 51.0146 85.8879 50.9997 86.011 50.9699C86.1342 50.94 86.2343 50.9027 86.3112 50.8504C86.3959 50.7982 86.4498 50.7384 86.496 50.6713C86.5422 50.6041 86.5576 50.5294 86.5576 50.4473C86.5576 50.3428 86.5268 50.2458 86.4652 50.1562C86.4036 50.0666 86.3112 49.992 86.2035 49.9173C86.0957 49.8427 85.9648 49.7755 85.8109 49.7083C85.6569 49.6411 85.4953 49.5739 85.3182 49.5067C84.8717 49.3276 84.5407 49.1036 84.3174 48.8424C84.0942 48.5811 83.9864 48.2676 83.9864 47.9018C83.9864 47.6107 84.048 47.3643 84.1635 47.1553C84.279 46.9463 84.4483 46.7746 84.6485 46.6403C84.8563 46.5059 85.095 46.4088 85.3644 46.3417C85.6338 46.2745 85.9186 46.2446 86.2266 46.2446C86.5345 46.2446 86.7885 46.2595 87.0195 46.2969C87.2504 46.3342 87.4583 46.3864 87.6584 46.4536V47.6107C87.566 47.5435 87.4583 47.4912 87.3428 47.439C87.2273 47.3867 87.1118 47.3494 86.9964 47.3196C86.8809 47.2897 86.7577 47.2598 86.6423 47.2449C86.5268 47.23 86.4113 47.2225 86.3036 47.2225C86.1573 47.2225 86.0264 47.2374 85.9032 47.2598C85.7801 47.2822 85.68 47.327 85.603 47.3718C85.526 47.4166 85.4568 47.4763 85.4106 47.551C85.3644 47.6256 85.3413 47.6928 85.3413 47.7824C85.3413 47.872 85.3644 47.9615 85.4183 48.0287C85.4722 48.0959 85.5414 48.1705 85.6338 48.2377C85.7262 48.3049 85.8417 48.3646 85.9725 48.4318C86.1034 48.499 86.2574 48.5587 86.4267 48.6259C86.6577 48.7155 86.8578 48.82 87.0426 48.9245C87.2273 49.029 87.3813 49.1484 87.5122 49.2753C87.643 49.4022 87.7431 49.559 87.8124 49.7232C87.8817 49.8875 87.9125 50.089 87.9125 50.313C87.9125 50.619 87.8509 50.8803 87.7277 51.0893C87.6045 51.2983 87.4429 51.47 87.235 51.5969C87.0272 51.7238 86.7885 51.8209 86.5114 51.8806C86.2343 51.9403 85.9494 51.9627 85.6415 51.9627C85.3336 51.9627 85.0257 51.9403 84.7485 51.888C84.4637 51.8358 84.2174 51.7611 84.0095 51.6566V51.6865Z" fill="#022168"/>
<path d="M93.84 51.7014C93.4243 51.8955 92.8777 51.9925 92.208 51.9925C91.3304 51.9925 90.6453 51.7462 90.1372 51.2461C89.6291 50.7459 89.3828 50.0815 89.3828 49.2455C89.3828 48.3572 89.6676 47.6405 90.2296 47.0881C90.7915 46.5357 91.5229 46.2595 92.4313 46.2595C92.9855 46.2595 93.4628 46.3267 93.84 46.4611V47.6629C93.4551 47.439 93.024 47.327 92.5313 47.327C91.9925 47.327 91.5614 47.4912 91.2303 47.8197C90.8993 48.1481 90.7377 48.5886 90.7377 49.1484C90.7377 49.7083 90.8916 50.1114 91.2072 50.4324C91.5229 50.7534 91.9386 50.9101 92.4621 50.9101C92.9855 50.9101 93.4243 50.7907 93.84 50.5518V51.7014Z" fill="#022168"/>
<path d="M98.0509 52C97.2349 52 96.5652 51.7387 96.0494 51.2237C95.5336 50.7086 95.2796 50.0368 95.2796 49.2007C95.2796 48.3273 95.5413 47.6181 96.0648 47.0732C96.5882 46.5283 97.2811 46.2595 98.1433 46.2595C98.9593 46.2595 99.6213 46.5208 100.122 47.0359C100.622 47.551 100.876 48.2377 100.876 49.0813C100.876 49.9248 100.614 50.6563 100.091 51.1863C99.5674 51.7163 98.89 51.9851 98.0509 51.9851V52ZM98.1048 47.3419C97.6506 47.3419 97.2965 47.5062 97.027 47.8346C96.7576 48.1631 96.6267 48.596 96.6267 49.141C96.6267 49.6859 96.7576 50.1263 97.027 50.4399C97.2965 50.7534 97.6429 50.9176 98.074 50.9176C98.5051 50.9176 98.8669 50.7608 99.1286 50.4548C99.3904 50.1487 99.5212 49.7158 99.5212 49.1634C99.5212 48.611 99.398 48.1407 99.144 47.8197C98.89 47.4987 98.5436 47.3419 98.1048 47.3419Z" fill="#022168"/>
<path d="M104.009 49.992V51.903H102.724V46.3641H104.741C106.18 46.3641 106.904 46.9538 106.904 48.1332C106.904 48.6931 106.696 49.141 106.288 49.4844C105.872 49.8277 105.326 49.9994 104.633 49.9994H104.017L104.009 49.992ZM104.009 47.3196V49.0439H104.517C105.202 49.0439 105.549 48.7528 105.549 48.1705C105.549 47.5883 105.202 47.3196 104.517 47.3196H104.009Z" fill="#022168"/>
<path d="M112.061 51.903H108.636V46.3641H111.931V47.3793H109.921V48.611H111.792V49.6262H109.921V50.8952H112.061V51.9104V51.903Z" fill="#022168"/>
</g>
<defs>
<clipPath id="clip0_6915_1056">
<rect width="143" height="52" fill="white"/>
</clipPath>
</defs>
</svg>
