<svg width="134" height="52" viewBox="0 0 134 52" fill="none" xmlns="http://www.w3.org/2000/svg">
<path fill-rule="evenodd" clip-rule="evenodd" d="M34.2498 31.486C34.2498 30.2553 34.2599 29.0246 34.2423 27.7939C34.238 27.4955 34.3368 27.4193 34.6382 27.424C35.6002 27.4404 36.5631 27.4469 37.5251 27.4261C39.732 27.378 41.5412 26.5564 42.8024 24.8113C43.8462 23.3672 44.1334 21.7426 43.8502 20.021C43.6031 18.5194 42.9141 17.2471 41.6353 16.308C40.1954 15.2514 38.5404 14.9026 36.7621 15.1312C34.5734 15.4123 32.8805 16.4498 31.764 18.2802C31.2034 19.1991 30.9436 20.2038 30.9316 21.2628C30.9211 22.177 30.9223 23.0914 30.9349 24.0053C30.9383 24.2477 30.8634 24.3268 30.6017 24.326C27.9984 24.3178 25.3954 24.3178 22.792 24.3251C22.5322 24.326 22.4554 24.2506 22.4582 24.0041C22.4724 22.8086 22.4264 21.6116 22.4789 20.4181C22.5905 17.8717 23.4307 15.5357 24.9159 13.421C26.8075 10.728 29.3831 8.8513 32.5998 7.78559C34.9942 6.99247 37.4557 6.83713 39.9612 7.15309C42.791 7.51009 45.3089 8.54706 47.4754 10.3065C49.2259 11.7281 50.5156 13.4805 51.3539 15.521C52.0261 17.1577 52.3677 18.8541 52.4238 20.6165C52.5645 25.0531 50.9102 28.7728 47.522 31.7944C45.6365 33.4759 43.3908 34.56 40.8818 35.1421C39.5703 35.4461 38.2294 35.5152 36.884 35.5194C36.1685 35.5217 35.4527 35.5205 34.7372 35.5199C34.2488 35.5193 34.2491 35.5188 34.2491 35.0721C34.2498 33.8771 34.2498 32.6816 34.2498 31.486Z" fill="#022168"/>
<path fill-rule="evenodd" clip-rule="evenodd" d="M31.2225 36.2881C31.2225 39.2074 31.2182 42.1266 31.229 45.0456C31.2302 45.3413 31.1707 45.4462 30.8285 45.4436C28.6815 45.4269 26.5341 45.4371 24.3868 45.4333C23.1416 45.4313 22.1928 44.5288 22.1913 43.3477C22.1882 40.9446 22.1839 38.5412 22.1959 36.1378C22.1975 35.8262 22.1265 35.7236 21.7751 35.726C19.2331 35.7409 16.6909 35.7348 14.1486 35.7318C12.8948 35.7304 11.9976 34.8001 12.0118 33.6159C12.0368 31.5651 12.0213 29.5135 12 27.4621C11.997 27.1508 12.1444 27.1535 12.378 27.1537C17.0426 27.1567 21.7075 27.1558 26.3721 27.1558C27.8531 27.1558 29.3343 27.1693 30.8146 27.147C31.1802 27.1411 31.229 27.2669 31.228 27.5664C31.2185 30.4734 31.2222 33.3809 31.2225 36.2881Z" fill="#022168"/>
<path fill-rule="evenodd" clip-rule="evenodd" d="M66.0219 33.3675C66.0222 31.4688 66.0231 29.5704 66.0206 27.672C66.0206 27.5058 66.0339 27.3563 66.1502 27.213C68.0964 24.8119 72.4108 23.7128 75.3264 25.9799C77.1837 27.424 77.8964 30.0059 77.0523 32.2721C76.2782 34.3487 74.1583 35.7275 71.7308 35.7325C71.1634 35.7336 70.5958 35.7245 70.0287 35.7371C69.8121 35.7421 69.7229 35.699 69.7316 35.4701C69.7507 34.9669 69.7495 34.4622 69.7319 33.9589C69.7245 33.7432 69.7853 33.6802 70.016 33.6831C70.6692 33.6913 71.3304 33.7306 71.9746 33.6538C73.8998 33.4243 74.991 31.8079 74.8661 30.0804C74.7689 28.738 74.1287 27.7151 72.7641 27.1948C71.4778 26.7048 69.7868 27.0703 68.8328 28.0196C68.6354 28.216 68.541 28.4209 68.5416 28.704C68.5515 32.278 68.5441 35.8526 68.5555 39.4267C68.5564 39.7239 68.5043 39.8402 68.1612 39.8162C67.695 39.7834 67.2245 39.81 66.7555 39.808C66.2357 39.8059 66.0225 39.6007 66.0222 39.0978C66.0206 37.188 66.0215 35.2776 66.0219 33.3675Z" fill="#022168"/>
<path fill-rule="evenodd" clip-rule="evenodd" d="M111.689 20.0456C111.689 23.2535 111.689 26.4122 111.689 29.6671C112.26 29.0278 112.772 28.4551 113.283 27.8815C114.096 26.9694 114.907 26.0558 115.721 25.1449C115.797 25.0593 115.855 24.9423 116.004 24.9426C116.935 24.9429 117.867 24.9429 118.88 24.9429C118.014 25.8791 117.204 26.7543 116.394 27.6298C115.718 28.3602 115.054 29.1011 114.36 29.8151C114.162 30.0182 114.211 30.1158 114.375 30.2917C116.008 32.0324 117.632 33.7807 119.257 35.5273C119.304 35.5777 119.348 35.6295 119.44 35.7321C118.403 35.7321 117.424 35.7321 116.445 35.7324C116.277 35.7324 116.23 35.5903 116.147 35.4968C114.728 33.8751 113.313 32.2504 111.896 30.627C111.851 30.5751 111.804 30.5247 111.714 30.4253C111.706 30.6003 111.695 30.7213 111.695 30.8424C111.694 32.3662 111.687 33.8903 111.701 35.4141C111.704 35.6844 111.624 35.7521 111.35 35.7395C110.87 35.7178 110.388 35.7345 109.907 35.7333C109.381 35.7318 109.168 35.5346 109.167 35.0319C109.164 32.9099 109.166 30.7882 109.166 28.6661C109.166 26.3099 109.172 23.9537 109.158 21.5975C109.156 21.3179 109.249 21.1842 109.508 21.0696C110.23 20.7496 110.937 20.4011 111.689 20.0456Z" fill="#022168"/>
<path fill-rule="evenodd" clip-rule="evenodd" d="M96.151 31.1689C96.151 29.8916 96.1516 28.6137 96.1501 27.3361C96.1501 27.1834 96.1606 27.0488 96.2695 26.9123C97.984 24.7568 102.069 23.6102 104.858 25.7941C106.159 26.8132 106.765 28.1635 106.789 29.7398C106.819 31.6385 106.791 33.5374 106.804 35.4364C106.805 35.697 106.711 35.7445 106.465 35.7383C105.874 35.7231 105.279 35.7078 104.689 35.7427C104.334 35.7635 104.297 35.6334 104.3 35.3479C104.312 33.5196 104.312 31.6906 104.304 29.862C104.298 28.4466 103.44 27.2865 102.127 26.9738C100.883 26.6772 99.7904 26.9929 98.8617 27.8343C98.7056 27.9756 98.6609 28.1336 98.6612 28.3332C98.6671 30.666 98.655 32.9987 98.6751 35.3312C98.6782 35.6861 98.5683 35.7632 98.2243 35.7403C97.7822 35.711 97.3364 35.7342 96.8924 35.733C96.3608 35.731 96.1523 35.5364 96.1519 35.0378C96.1501 33.7479 96.151 32.4585 96.151 31.1689Z" fill="#022168"/>
<path fill-rule="evenodd" clip-rule="evenodd" d="M60.3394 21.6632C60.3394 22.6568 60.3557 23.6035 60.3304 24.5496C60.3215 24.8796 60.4264 24.9585 60.7602 24.9491C61.5985 24.9262 62.4383 24.9512 63.2769 24.9362C63.5271 24.9315 63.586 25.0066 63.5786 25.2322C63.5613 25.7475 63.5592 26.2642 63.5795 26.7792C63.5894 27.021 63.499 27.0714 63.2645 27.0682C62.401 27.0565 61.5371 27.0711 60.6735 27.0585C60.4301 27.055 60.3307 27.0984 60.3326 27.3598C60.3456 28.9892 60.3326 30.6185 60.3422 32.2478C60.3483 33.278 60.7991 33.6869 61.891 33.6884C62.6808 33.6893 63.4706 33.6975 64.2598 33.6828C64.4903 33.6784 64.5511 33.7373 64.5437 33.9542C64.5258 34.4695 64.5387 34.9859 64.5372 35.5012C64.5369 35.6123 64.577 35.7404 64.3691 35.7351C63.0754 35.702 61.7731 35.8383 60.4881 35.6706C58.7634 35.4458 57.8206 34.3898 57.8144 32.7449C57.8027 29.5331 57.8107 26.3214 57.8113 23.1096C57.8113 22.9968 57.7758 22.8708 57.9205 22.8025C58.7122 22.4299 59.5036 22.0568 60.3394 21.6632Z" fill="#022168"/>
<path fill-rule="evenodd" clip-rule="evenodd" d="M88.543 20.0518C88.543 20.225 88.543 20.3416 88.543 20.458C88.543 25.4046 88.5378 30.3512 88.5532 35.2975C88.5544 35.6756 88.44 35.7685 88.0676 35.7401C87.6508 35.7087 87.2293 35.7336 86.8097 35.7322C86.2318 35.7304 86.0329 35.5428 86.0325 34.9942C86.0319 30.9852 86.0322 26.9768 86.0322 22.9678C86.0322 22.4754 86.0353 21.9833 86.0301 21.4909C86.0288 21.3428 86.0421 21.2332 86.2143 21.1544C86.9772 20.8047 87.7316 20.4381 88.543 20.0518Z" fill="#022168"/>
<path fill-rule="evenodd" clip-rule="evenodd" d="M93.6056 30.3626C93.6053 32.0494 93.6007 33.7358 93.6109 35.4223C93.6124 35.6603 93.5584 35.7503 93.2894 35.7392C92.7847 35.7181 92.2787 35.7353 91.7733 35.7321C91.3343 35.7292 91.0989 35.5246 91.0985 35.1163C91.0942 31.8017 91.0976 28.4873 91.0921 25.173C91.0918 24.9851 91.1541 24.9356 91.3438 24.9385C91.9973 24.9479 92.6507 24.9523 93.3042 24.9362C93.5516 24.93 93.613 25.0027 93.6115 25.2334C93.6013 26.943 93.6059 28.6529 93.6056 30.3626Z" fill="#022168"/>
<path fill-rule="evenodd" clip-rule="evenodd" d="M79.1919 29.1154C80.7105 29.1154 82.1649 29.1178 83.6189 29.1122C83.7902 29.1116 83.8213 29.1793 83.8204 29.3209C83.8152 29.9883 83.8139 30.6565 83.8213 31.3239C83.8232 31.4837 83.7566 31.5183 83.6038 31.5174C82.6048 31.5127 81.6058 31.5141 80.6071 31.5168C80.4886 31.5171 80.4047 31.503 80.3446 31.3825C79.9765 30.6448 79.5985 29.9118 79.1919 29.1154Z" fill="#022168"/>
<path fill-rule="evenodd" clip-rule="evenodd" d="M92.3574 22.4446C92.0368 22.4446 91.7138 22.4238 91.3954 22.4507C91.118 22.4742 90.9653 22.3608 90.8394 22.1489C90.4612 21.5117 90.6389 20.6678 91.2615 20.1828C91.8887 19.6945 92.8806 19.7097 93.4792 20.2162C94.0897 20.7326 94.2341 21.5653 93.8281 22.1919C93.7177 22.3628 93.5927 22.466 93.3567 22.4502C93.025 22.4282 92.6906 22.4449 92.3574 22.4446Z" fill="#022168"/>
</svg>
