<svg width="134" height="52" viewBox="0 0 134 52" fill="none" xmlns="http://www.w3.org/2000/svg">
<path fill-rule="evenodd" clip-rule="evenodd" d="M31.1484 17.2931C31.5176 17.2931 31.6191 17.4928 31.2798 17.8198C30.9405 18.1469 20.8106 28.8584 20.8106 28.8584L20.2002 31.7815H37.4632L38.0603 28.3505H29.8928C29.5069 28.3505 29.3439 28.1539 29.7797 27.7309C30.2154 27.3095 39.7533 17.1264 39.7533 17.1264L40.4552 13.8667H23.1322L22.5967 17.2931H31.1484Z" fill="#022168"/>
<path fill-rule="evenodd" clip-rule="evenodd" d="M70.3245 17.5525C70.1399 17.7302 70.0002 17.7585 69.8672 17.4865C69.7358 17.2207 68.086 13.8667 68.086 13.8667H60.8132L65.109 22.5985L55.6144 31.7815H61.8843C61.8843 31.7815 66.215 27.5926 66.6141 27.2073C67.0083 26.8268 67.1929 26.8315 67.3875 27.2277C67.5604 27.5784 69.6277 31.7815 69.6277 31.7815H76.9004L72.0591 21.9412L80.4146 13.8667H74.1347C74.1347 13.8667 70.4476 17.433 70.3229 17.5525H70.3245Z" fill="#022168"/>
<path fill-rule="evenodd" clip-rule="evenodd" d="M102.286 13.8667H108.922C108.922 13.8667 106.05 27.135 105.903 27.8064C105.785 28.3505 105.957 28.3505 106.283 28.3505H114.668L113.924 31.7815H98.4077L102.286 13.8667Z" fill="#022168"/>
<path fill-rule="evenodd" clip-rule="evenodd" d="M82.9625 13.8667L79.0808 31.7815H95.2461L95.9895 28.3505H86.6728C86.3352 28.3505 86.3286 28.3568 86.4117 27.9668C86.4965 27.5737 86.9589 25.4383 87.0437 25.0468C87.1319 24.6427 87.1501 24.5703 87.8021 24.5703H95.8349L96.5999 21.037H88.3842C88.02 21.037 87.9285 20.9584 88.0066 20.5999C88.1347 20.0102 88.5472 18.1044 88.6436 17.661C88.7251 17.282 89.0793 17.2852 89.3637 17.2852H97.809L98.5491 13.8667H82.9625Z" fill="#022168"/>
<path fill-rule="evenodd" clip-rule="evenodd" d="M40.6381 19.6643H46.8847C46.8847 19.6643 48.3067 26.8378 48.4198 27.4243C48.5528 28.1115 48.6659 27.9652 49.0035 27.4432C49.3411 26.9211 54.0776 19.6643 54.0776 19.6643H59.2965C59.2965 19.6643 53.9845 27.7687 50.5402 33.0426C47.673 37.4313 45.1767 37.7867 41.8156 37.7867C39.414 37.7867 37.889 37.4313 37.889 37.4313L38.3364 34.0097C38.3364 34.0097 39.9097 34.2723 41.2651 34.2723C42.6205 34.2723 43.4321 33.8823 43.4321 32.5788C43.4321 31.9954 43.1411 31.1148 42.8267 29.6037C42.5124 28.0926 40.6364 19.6627 40.6364 19.6627L40.6381 19.6643Z" fill="#022168"/>
</svg>
