<svg width="74" height="72" viewBox="0 0 74 72" fill="none" xmlns="http://www.w3.org/2000/svg">
<g clip-path="url(#clip0_304_2575)">
<path d="M39.7316 65.9712C28.867 66.9863 19.8185 63.2836 12.9762 54.9099C5.51864 45.7851 4.08153 35.4073 8.40412 24.4958C13.6723 11.2001 27.6513 3.40316 41.8929 6.14322C53.5024 8.37572 61.2189 15.4441 65.23 26.5073C66.7103 30.5865 67.0199 34.8361 66.5977 39.1513C66.4401 40.7582 67.5658 42.0337 69.1418 42.1929C70.592 42.3389 71.9034 41.2733 72.1361 39.7412C72.2374 39.0763 72.3012 38.4058 72.3818 37.7372V34.0907C72.1999 32.6598 72.091 31.2139 71.8228 29.798C69.4663 17.42 62.5791 8.36261 51.1591 3.16343C33.366 -4.93687 12.1188 3.09039 3.79073 20.75C1.15665 26.3387 0.218588 32.2627 0.571299 38.4096C1.4831 54.2806 13.7173 67.7318 28.9345 71.0037C30.4148 71.3221 31.9345 71.4607 33.4372 71.6873C33.6417 71.7173 33.8444 71.7697 34.047 71.8109H38.3996C39.0675 71.721 39.7335 71.6255 40.4014 71.5412C42.0881 71.3315 43.1837 70.0485 43.0074 68.4828C42.8179 66.814 41.4596 65.8083 39.7316 65.9694V65.9712Z" fill="#4C43FF"/>
<path d="M57.7087 38.6999C57.9188 38.6999 58.1308 38.7055 58.3409 38.698C59.9319 38.6344 61.1551 37.3908 61.1382 35.8606C61.1213 34.3098 59.8962 33.1112 58.2846 33.1018C56.2959 33.0887 54.3072 33.0981 52.3167 33.0981C52.0653 33.0981 51.8139 33.0981 51.6994 33.0981C51.1816 29.6519 50.8158 26.3294 50.1516 23.0649C49.5269 19.984 48.6282 16.9574 47.7727 13.9289C47.313 12.2995 45.6114 11.5241 44.0824 12.1122C42.6696 12.6535 41.9849 14.1218 42.4651 15.6857C43.9304 20.4466 45.1067 25.2675 45.6377 30.2307C45.7371 31.1671 45.7953 32.1092 45.8722 33.0512H26.9984C27.3192 30.6521 27.488 28.2903 27.9758 25.996C28.7263 22.4637 29.6925 18.9764 30.5743 15.4722C30.957 13.9514 30.1615 12.5036 28.6775 12.0504C27.246 11.6121 25.702 12.3501 25.2367 13.8072C23.6476 18.7741 22.4169 23.8235 21.8278 29.0151C21.6758 30.3561 21.5707 31.7009 21.4375 33.0999C21.1449 33.0999 20.8935 33.0999 20.6402 33.0999C18.6046 33.0999 16.569 33.0868 14.5334 33.1074C13.2126 33.1205 12.1901 33.9015 11.8637 35.0833C11.3365 36.9843 12.6085 38.6625 14.6478 38.6943C16.6591 38.7261 18.6721 38.6999 20.6852 38.7037C20.931 38.7037 21.1768 38.7243 21.3813 38.7318C21.6308 40.9437 21.8221 43.0825 22.1223 45.2064C22.7471 49.6302 23.8465 53.9472 25.2048 58.2006C25.6307 59.536 26.9571 60.3151 28.2741 60.0903C30.0865 59.7813 31.047 58.15 30.473 56.2865C29.1653 52.0425 28.094 47.7442 27.5237 43.3354C27.3286 41.8183 27.2123 40.2919 27.0528 38.7037H28.0171C37.9155 38.7037 47.814 38.7037 57.7124 38.7037L57.7087 38.6999Z" fill="#4C43FF"/>
<path d="M71.4749 67.6941L63.9872 60.2193C64.8015 58.6536 65.2649 56.8799 65.2649 54.9977C65.2649 48.7309 60.1581 43.6348 53.8824 43.6348C47.6068 43.6348 42.5 48.7328 42.5 54.9977C42.5 61.2625 47.6068 66.3606 53.8824 66.3606C56.4434 66.3606 58.8073 65.5121 60.7115 64.0812L67.9027 71.2601C68.3961 71.7527 69.0434 71.998 69.6888 71.998C70.3342 71.998 70.9814 71.7527 71.4749 71.2601C72.4617 70.2749 72.4617 68.6792 71.4749 67.6941ZM47.5505 54.9977C47.5505 51.5122 50.391 48.6785 53.8806 48.6785C57.3702 48.6785 60.2106 51.5141 60.2106 54.9977C60.2106 58.4813 57.3702 61.3168 53.8806 61.3168C50.391 61.3168 47.5505 58.4813 47.5505 54.9977Z" fill="#4C43FF"/>
</g>
<defs>
<clipPath id="clip0_304_2575">
<rect width="73" height="72" fill="white" transform="translate(0.5)"/>
</clipPath>
</defs>
</svg>
