<svg width="73" height="72" viewBox="0 0 73 72" fill="none" xmlns="http://www.w3.org/2000/svg">
<g clip-path="url(#clip0_6915_901)">
<path d="M68.6543 26.7869C68.0399 25.7836 66.9258 25.3381 65.7498 25.5406C64.6808 25.7247 63.7809 26.6047 63.546 27.7001C63.3544 28.6003 63.7358 29.3496 64.1585 30.1081C66.6703 34.6167 67.0592 39.3002 65.235 44.118C63.5761 48.5014 60.5119 51.8042 56.5966 54.3411C48.5689 59.5437 39.6825 60.8655 30.3021 59.621C27.9199 59.3044 25.5546 59.1295 23.3076 60.0187C21.5398 60.7182 19.8884 61.6995 18.1938 62.5666C17.7072 62.8151 17.2413 63.1079 16.672 63.4337C16.672 62.6881 16.7171 62.0695 16.6607 61.4583C16.5762 60.5249 16.4973 59.5805 16.2887 58.6692C15.6049 55.6758 13.869 53.3119 11.6464 51.2058C5.7435 45.6129 4.37204 37.1333 8.21214 30.0749C10.5023 25.8646 14.0286 22.8656 18.2351 20.6012C23.9746 17.5102 30.1856 16.3025 36.686 16.3117C37.0824 16.3117 37.492 16.3191 37.8715 16.227C39.2091 15.9012 40.1015 14.6309 39.9456 13.3348C39.769 11.862 38.6831 10.8881 37.0692 10.8624C33.6631 10.8071 30.2833 11.0814 26.9448 11.7626C20.9912 12.9758 15.5072 15.2218 10.7183 18.948C6.16058 22.4937 2.80707 26.8735 1.28155 32.4517C0.926469 33.7514 0.755506 35.099 0.5 36.4245V40.0071C0.541332 40.2078 0.584542 40.4066 0.625874 40.6073C0.984709 42.3102 1.21391 44.0518 1.72868 45.7086C2.90664 49.4992 5.1085 52.6989 8.04305 55.407C10.1416 57.3437 11.22 59.6578 11.1091 62.5151C11.0377 64.3266 11.0603 66.1437 11.1166 67.957C11.1354 68.5535 11.2688 69.2107 11.5619 69.7244C12.3303 71.0665 14.0155 71.3849 15.4847 70.5326C18.1844 68.9677 20.8559 67.355 23.5725 65.8178C25.068 64.9728 26.7006 64.6359 28.4422 64.9102C33.7834 65.7497 39.1227 65.7754 44.4545 64.8237C51.6312 63.5442 58.1334 60.8269 63.5254 55.9225C69.4922 50.4952 72.6052 43.8787 71.7898 35.7636C71.4667 32.54 70.3507 29.5595 68.6524 26.7906L68.6543 26.7869Z" fill="#4C43FF"/>
<path d="M54.8527 27.0407C58.6797 26.1718 61.3136 22.893 61.3437 18.9146C61.3681 15.7683 61.3437 12.6221 61.3512 9.47584C61.3568 7.55568 62.4427 6.49343 64.3966 6.48423C66.1551 6.47502 67.9117 6.51 69.6702 6.47318C71.3347 6.4382 72.539 5.20842 72.4977 3.66015C72.4582 2.13949 71.2333 1.01464 69.5856 1.00544C67.7576 0.996234 65.9297 0.996234 64.1017 1.00544C60.0173 1.02753 56.5304 3.90868 55.8973 7.85761C55.7207 8.95852 55.762 10.0944 55.7 11.2598C55.5028 11.2137 55.3036 11.1695 55.1064 11.1217C53.7424 10.7885 52.3728 10.7516 51.0032 11.0793C46.5432 12.1471 43.7626 16.5581 44.811 20.9029C45.8725 25.3084 50.372 28.0588 54.8508 27.0407H54.8527ZM52.9439 16.3133C54.4807 16.3004 55.7658 17.5559 55.7601 19.0619C55.7545 20.5384 54.4995 21.7737 52.9909 21.7921C51.4692 21.8086 50.1616 20.5328 50.171 19.0398C50.1804 17.5633 51.4372 16.3262 52.9458 16.3133H52.9439Z" fill="#4C43FF"/>
<path d="M30.7661 29.5061C29.7253 28.4862 28.0401 28.4862 27.0012 29.5061C25.9623 30.5261 25.9604 32.1774 27.0012 33.1955L32.4457 38.5307L27.0012 43.8659C25.9604 44.8858 25.9604 46.5372 27.0012 47.5552C27.5216 48.0652 28.2017 48.3192 28.8837 48.3192C29.5656 48.3192 30.2457 48.0652 30.7661 47.5552L36.2107 42.22L41.6552 47.5552C42.1756 48.0652 42.8557 48.3192 43.5377 48.3192C44.2196 48.3192 44.8997 48.0652 45.4201 47.5552C46.461 46.5372 46.461 44.8839 45.4201 43.8659L39.9756 38.5307L45.4201 33.1955C46.461 32.1756 46.461 30.5242 45.4201 29.5061C44.3793 28.4881 42.6941 28.4862 41.6552 29.5061L36.2107 34.8413L30.7661 29.5061Z" fill="#4C43FF"/>
</g>
<defs>
<clipPath id="clip0_6915_901">
<rect width="72" height="70" fill="white" transform="translate(0.5 1)"/>
</clipPath>
</defs>
</svg>
