<svg width="73" height="72" viewBox="0 0 73 72" fill="none" xmlns="http://www.w3.org/2000/svg">
<g clip-path="url(#clip0_6915_771)">
<path d="M33.5901 47.485L18.016 31.9108C16.9725 30.8674 16.9725 29.178 18.016 28.1364C19.0594 27.0949 20.7488 27.093 21.7904 28.1364L33.5901 39.9362L63.5386 9.98765C64.5802 8.94422 66.2715 8.94422 67.313 9.98765C68.3546 11.0311 68.3564 12.7205 67.313 13.7621L33.5901 47.485Z" fill="#4C43FF"/>
<path d="M36.5 72C16.6505 72 0.5 55.8495 0.5 36C0.5 16.1505 16.6505 0 36.5 0C43.3049 0 49.9327 1.90792 55.664 5.52035C56.9108 6.30574 57.2856 7.95375 56.5002 9.20247C55.7148 10.4493 54.0668 10.8241 52.8181 10.0387C47.94 6.96495 42.2972 5.34143 36.5 5.34143C19.5943 5.33954 5.83954 19.0943 5.83954 36C5.83954 52.9057 19.5943 66.6605 36.5 66.6605C53.4057 66.6605 67.1604 52.9057 67.1604 36C67.1604 32.3857 66.5389 28.8486 65.3109 25.4867C64.8062 24.1023 65.5181 22.5692 66.9024 22.0645C68.2867 21.5578 69.8199 22.2716 70.3246 23.656C71.7673 27.6055 72.4981 31.7585 72.4981 36C72.4981 55.8495 56.3476 72 36.4981 72H36.5Z" fill="#4C43FF"/>
</g>
<defs>
<clipPath id="clip0_6915_771">
<rect width="72" height="72" fill="white" transform="translate(0.5)"/>
</clipPath>
</defs>
</svg>
