<svg width="73" height="72" viewBox="0 0 73 72" fill="none" xmlns="http://www.w3.org/2000/svg">
<path d="M61.4678 72C59.7388 71.6756 58.4148 70.6762 57.149 69.5231C55.2249 67.7719 53.2464 66.0825 51.2979 64.3594C50.0058 63.2175 49.8445 61.5131 50.8947 60.2962C51.9562 59.0662 53.7077 59.0006 55.028 60.1556C57.2315 62.085 59.4237 64.0312 61.6404 65.9456C61.8692 66.1444 62.2367 66.1838 62.5405 66.2981C62.6512 65.9906 62.8575 65.6813 62.8575 65.3737C62.8725 49.2281 62.8819 33.0825 62.865 16.9369C62.8594 10.5881 57.8597 5.6325 51.5023 5.62875C41.1636 5.62125 30.8249 5.62125 20.4862 5.62875C14.1382 5.63438 9.15354 10.6013 9.14416 16.9575C9.12916 27.2925 9.12916 37.6256 9.14416 47.9606C9.15354 54.2944 14.0519 59.2725 20.3905 59.3194C27.5412 59.3719 34.6918 59.3325 41.8425 59.3362C43.309 59.3362 44.3423 60.0338 44.7155 61.2488C45.3025 63.1594 44.016 64.9013 41.955 64.9463C40.6198 64.9763 39.2827 64.9519 37.9455 64.9519C32.1076 64.9519 26.2697 64.9688 20.4318 64.9481C12.5929 64.92 5.86795 59.6644 4.02825 52.0837C3.71132 50.7769 3.54066 49.3988 3.53504 48.0544C3.49378 37.6706 3.49003 27.2906 3.51816 16.9088C3.54066 8.25563 9.84554 1.19813 18.4458 0.12C18.579 0.103125 18.7084 0.04125 18.8396 0C30.2829 0 41.7243 0 53.1676 0C54.1934 0.215625 55.238 0.3675 56.2413 0.658125C63.5964 2.78812 68.4854 9.32437 68.491 17.0531C68.5041 31.7475 68.4947 46.4419 68.4947 61.1362C68.4947 62.7056 68.5097 64.2769 68.4891 65.8463C68.4553 68.5369 66.8182 70.7869 64.2827 71.6569C63.9114 71.7844 63.5307 71.8856 63.1538 72H61.466H61.4678Z" fill="#4C43FF"/>
<path d="M36.464 49.0762C31.1831 49.0031 27.2149 46.965 23.8618 43.5994C23.1041 42.84 22.4103 42.0019 21.7839 41.13C20.8294 39.8044 21.1388 38.1188 22.4178 37.2169C23.708 36.3075 25.3733 36.5662 26.3353 37.8844C28.1132 40.32 30.2979 42.2325 33.2647 42.9956C37.8461 44.1769 41.5387 42.5719 44.5617 39.1256C44.9312 38.7037 45.2406 38.2294 45.5875 37.7887C46.5289 36.5887 48.1774 36.3375 49.4245 37.2C50.6378 38.04 51.0691 39.7031 50.2084 40.9313C46.7652 45.8456 42.1894 48.8494 36.464 49.0762Z" fill="#4C43FF"/>
<path d="M44.1623 23.1637C44.1623 21.9244 44.1548 20.6831 44.1623 19.4437C44.1754 17.6812 45.2969 16.4794 46.9303 16.4587C48.5974 16.4381 49.7714 17.6475 49.7826 19.4325C49.7977 21.9112 49.7958 24.3919 49.7826 26.8725C49.7733 28.5619 48.5374 29.82 46.9396 29.8031C45.3662 29.7862 44.1754 28.5412 44.1623 26.8837C44.1529 25.6444 44.1604 24.4031 44.1604 23.1637H44.1623Z" fill="#4C43FF"/>
<path d="M22.3596 23.1338C22.3596 21.8944 22.3484 20.6531 22.3615 19.4138C22.3803 17.6625 23.5242 16.4644 25.1614 16.4587C26.8023 16.4531 27.9706 17.6494 27.98 19.3912C27.995 21.8944 27.9931 24.3975 27.98 26.9006C27.9725 28.5506 26.7573 29.7956 25.1839 29.8013C23.6124 29.8088 22.3821 28.5638 22.3615 26.9231C22.3465 25.6594 22.3578 24.3975 22.3578 23.1338H22.3596Z" fill="#4C43FF"/>
</svg>
