<svg width="134" height="23" viewBox="0 0 134 23" fill="none" xmlns="http://www.w3.org/2000/svg">
<g clip-path="url(#clip0_321_2161)">
<path d="M9.99866 22.6952H6.55093V4.62536H0.494888V1.48926H16.0547V4.62536H9.99866V22.6952Z" fill="white"/>
<path d="M33.9523 21.0225L31.434 23.2925L23.3993 14.5115H21.9003V22.6952H18.4525V1.48926H30.3246L33.5925 4.71496V11.2858L30.3246 14.5115H28.346L27.6565 14.2129L27.5965 14.3025L28.286 14.8402L33.9523 21.0225ZM21.9002 4.62536V11.3754H28.7056L30.1446 9.97171V6.02908L28.7056 4.62536H21.9002Z" fill="white"/>
<path d="M37.2499 1.48926H50.831V4.62536H40.6976V10.0612H49.5717V13.1973H40.6976V19.5591H50.831V22.6952H37.2499V1.48926Z" fill="white"/>
<path d="M73.4654 1.48926H76.9132V19.5591H86.8966V22.6952H73.4654V1.48926Z" fill="white"/>
<path d="M86.8065 22.6962V19.5599H89.8346V4.62634H86.8065V1.49023H96.3105V4.62634H93.2824V19.5599H96.3105V22.696L86.8065 22.6962Z" fill="white"/>
<path d="M110.76 15.1098L111.48 16.9317H111.6L111.33 15.0798V1.49023H114.778V22.6962H111.45L103.625 9.07656L102.905 7.25471H102.786L103.055 9.10656V22.6963H99.6076V1.49023H102.936L110.76 15.1098Z" fill="white"/>
<path d="M133.845 21.5607L130.967 23.2929L124.881 13.2574L122.422 16.0351V22.6956H118.975V1.48977H122.422V10.9578L131.327 0.892578L133.875 3.10269L127.219 10.6293L133.845 21.5607Z" fill="white"/>
<path d="M65.7908 1.48926H57.3065L53.529 4.92403V19.2604L57.3065 22.6952H65.7908L69.5682 19.2604V4.92403L65.7908 1.48926ZM64.4116 19.559H58.6855L56.9766 18.0059V6.20828L58.6855 4.62536H64.4116L66.1206 6.20828V6.9448H62.5234V7.80039H66.1206V9.3402H62.5234V10.1958H66.1206V11.7356H62.5234V12.5912H66.1206V14.1298H62.5234V14.9853H66.1206V16.5252H62.5234V17.3807H66.1206V17.9763L64.4116 19.559Z" fill="white"/>
</g>
<defs>
<clipPath id="clip0_321_2161">
<rect width="134" height="23" fill="white"/>
</clipPath>
</defs>
</svg>
